<?xml version="1.0" encoding="UTF-8" standalone="no"?>
<!-- Created with Inkscape (http://www.inkscape.org/) -->

<svg
   version="1.1"
   id="svg1"
   width="106.48232"
   height="35.875"
   viewBox="0 0 106.48232 35.874999"
   sodipodi:docname="arpeggiate.svg"
   inkscape:version="1.3.2 (091e20e, 2023-11-25)"
   xmlns:inkscape="http://www.inkscape.org/namespaces/inkscape"
   xmlns:sodipodi="http://sodipodi.sourceforge.net/DTD/sodipodi-0.dtd"
   xmlns="http://www.w3.org/2000/svg"
   xmlns:svg="http://www.w3.org/2000/svg">
  <defs
     id="defs1" />
  <sodipodi:namedview
     id="namedview1"
     pagecolor="#ffffff"
     bordercolor="#666666"
     borderopacity="1.0"
     inkscape:showpageshadow="2"
     inkscape:pageopacity="0.0"
     inkscape:pagecheckerboard="0"
     inkscape:deskcolor="#d1d1d1"
     inkscape:zoom="0.93619653"
     inkscape:cx="43.260148"
     inkscape:cy="58.748348"
     inkscape:window-width="1512"
     inkscape:window-height="881"
     inkscape:window-x="0"
     inkscape:window-y="38"
     inkscape:window-maximized="0"
     inkscape:current-layer="g1">
    <inkscape:page
       x="0"
       y="0"
       inkscape:label="1"
       id="page1"
       width="106.48232"
       height="35.875"
       margin="0"
       bleed="0" />
  </sodipodi:namedview>
  <g
     id="g1"
     inkscape:groupmode="layer"
     inkscape:label="1"
     transform="translate(-268.05859,-98.691408)">
    <path
       id="path14"
       d="m 344.69921,100.58203 c 0.26563,-0.0937 0.35939,-0.14062 0.5,-0.21875 0.25,-0.17187 0.42188,-0.484372 0.42188,-0.781248 0,-0.53125 -0.42188,-0.890624 -1.04688,-0.890624 -0.59375,0 -1.10937,0.375 -1.10937,0.828124 0,0.234376 0.14062,0.390625 0.35937,0.390625 0.17188,0 0.31251,-0.140625 0.31251,-0.3125 0,-0.09375 -0.0312,-0.171875 -0.12494,-0.25 -0.0469,-0.04688 -0.0781,-0.09375 -0.0781,-0.125 0,-0.140625 0.28124,-0.281249 0.54687,-0.281249 0.35937,0 0.57813,0.203124 0.57813,0.546874 0,0.5 -0.34376,0.953128 -0.71876,0.953128 -0.0156,0 -0.0625,0 -0.12493,0 -0.15624,-0.0156 -0.15624,-0.0156 -0.1875,-0.0156 -0.12493,0 -0.1875,0.0625 -0.1875,0.15625 0,0.0937 0.0625,0.14063 0.15625,0.14063 0.0312,0 0.0625,0 0.10933,-0.0156 0.0781,-0.0156 0.15626,-0.0156 0.21875,-0.0156 0.25,0 0.43751,0.23438 0.43751,0.57813 0,0.26562 -0.0625,0.51562 -0.18751,0.71875 -0.17187,0.29687 -0.42187,0.4375 -0.78124,0.4375 -0.31251,0 -0.57813,-0.14063 -0.57813,-0.32813 0,-0.0625 0.0312,-0.0781 0.10933,-0.10937 0.17188,-0.0781 0.23439,-0.17188 0.23439,-0.32813 0,-0.1875 -0.15626,-0.34375 -0.35939,-0.34375 -0.23437,0 -0.39061,0.1875 -0.39061,0.48438 0,0.53125 0.40624,0.85937 1.07812,0.85937 0.82812,0 1.46874,-0.54687 1.46874,-1.29687 0,-0.1875 -0.0625,-0.35938 -0.18749,-0.5 -0.10933,-0.14063 -0.21876,-0.21875 -0.46876,-0.28125 z m 0,0"
       style="fill:#000000;fill-opacity:1;fill-rule:nonzero;stroke:none;stroke-width:1.33333" />
    <path
       id="path15"
       d="m 270.57422,130.97266 c -1.25,0 -2.51563,1.07812 -2.51563,2.23437 0,0.79688 0.64063,1.35938 1.5625,1.35938 1.25,0 2.51563,-1.07813 2.51563,-2.23438 0,-0.79687 -0.64063,-1.35937 -1.5625,-1.35937 z m 0,-3.98828 c -1.25,0 -2.51563,1.07812 -2.51563,2.23437 0,0.79688 0.64063,1.35938 1.5625,1.35938 1.25,0 2.51563,-1.07813 2.51563,-2.23438 0,-0.79687 -0.64063,-1.35937 -1.5625,-1.35937 z m 0,-3.98438 c -1.25,0 -2.51563,1.07813 -2.51563,2.23438 0,0.79687 0.64063,1.35937 1.5625,1.35937 1.25,0 2.51563,-1.07812 2.51563,-2.23437 0,-0.79688 -0.64063,-1.35938 -1.5625,-1.35938 z m 0,0"
       style="fill:#000000;fill-opacity:1;fill-rule:nonzero;stroke:none;stroke-width:1.33333" />
    <path
       id="path16"
       d="m 2037.44,7428.38 h 1.6016 v 137.23 h -1.6016 z"
       style="fill:none;stroke:#000000;stroke-width:3.98506;stroke-linecap:butt;stroke-linejoin:round;stroke-miterlimit:10;stroke-dasharray:none;stroke-opacity:1"
       transform="matrix(0.13333333,0,0,-0.13333333,0,1122.52)" />
    <path
       id="path17"
       d="m 2037.44,7428.38 h 1.6016 v 137.227 h -1.6016 z"
       style="fill:#000000;fill-opacity:1;fill-rule:nonzero;stroke:none"
       transform="matrix(0.13333333,0,0,-0.13333333,0,1122.52)" />
    <path
       id="path18"
       d="m 2503.87,7607.65 v -10.36 l 158.42,19.97 v 10.36 z"
       style="fill:#000000;fill-opacity:1;fill-rule:nonzero;stroke:#000000;stroke-width:3.98506;stroke-linecap:butt;stroke-linejoin:round;stroke-miterlimit:10;stroke-dasharray:none;stroke-opacity:1;paint-order:stroke fill markers"
       transform="matrix(0.13333333,0,0,-0.13333333,0,1122.52)" />
    <path
       id="path19"
       d="m 2503.87,7581.11 v -10.36 l 158.42,19.97 v 10.36 z"
       style="fill:#000000;fill-opacity:1;fill-rule:nonzero;stroke:#000000;stroke-width:3.98506;stroke-linecap:butt;stroke-linejoin:round;stroke-miterlimit:10;stroke-dasharray:none;stroke-opacity:1;paint-order:stroke fill markers"
       transform="matrix(0.13333333,0,0,-0.13333333,0,1122.52)" />
    <path
       id="path20"
       d="m 2503.87,7554.57 v -10.36 l 158.42,19.97 v 10.36 z"
       style="fill:#000000;fill-opacity:1;fill-rule:nonzero;stroke:#000000;stroke-width:3.98506;stroke-linecap:butt;stroke-linejoin:round;stroke-miterlimit:10;stroke-dasharray:none;stroke-opacity:1;paint-order:stroke fill markers"
       transform="matrix(0.13333333,0,0,-0.13333333,0,1122.52)" />
    <path
       id="path21"
       d="m 2503.87,7528.04 v -10.36 l 158.42,19.96 v 10.37 z"
       style="fill:#000000;fill-opacity:1;fill-rule:nonzero;stroke:#000000;stroke-width:3.98506;stroke-linecap:butt;stroke-linejoin:round;stroke-miterlimit:10;stroke-dasharray:none;stroke-opacity:1;paint-order:stroke fill markers"
       transform="matrix(0.13333333,0,0,-0.13333333,0,1122.52)" />
    <path
       id="path22"
       d="m 2235.48,7458.27 h 1.6016 v 142.414 h -1.6016 z"
       style="fill:none;stroke:#000000;stroke-width:3.98506;stroke-linecap:butt;stroke-linejoin:round;stroke-miterlimit:10;stroke-dasharray:none;stroke-opacity:1"
       transform="matrix(0.13333333,0,0,-0.13333333,0,1122.52)" />
    <path
       id="path23"
       d="m 2235.48,7458.27 h 1.6016 v 142.41 h -1.6016 z"
       style="fill:#000000;fill-opacity:1;fill-rule:nonzero;stroke:none"
       transform="matrix(0.13333333,0,0,-0.13333333,0,1122.52)" />
    <g
       id="g23"
       aria-label="3&#10;"
       transform="matrix(1.3333333,0,0,1.3333333,309.91333,102.936)">
      <path
         id="path24"
         d="m 1.4067969,-1.498875 c 0.1992187,-0.070312 0.2695312,-0.1054687 0.375,-0.1640625 0.1875,-0.1289062 0.3164062,-0.3632812 0.3164062,-0.5859375 0,-0.3984375 -0.3164062,-0.6679687 -0.7851562,-0.6679687 -0.44531252,0 -0.83203127,0.28125 -0.83203127,0.6210937 0,0.1757813 0.10546875,0.2929688 0.26953125,0.2929688 0.12890625,0 0.234375,-0.1054688 0.234375,-0.234375 0,-0.070312 -0.0234375,-0.1289063 -0.09375,-0.1875 -0.0351563,-0.035156 -0.0585938,-0.070312 -0.0585938,-0.09375 0,-0.1054688 0.21093752,-0.2109375 0.41015632,-0.2109375 0.2695312,0 0.4335937,0.1523437 0.4335937,0.4101562 0,0.375 -0.2578125,0.7148438 -0.5390625,0.7148438 -0.011719,0 -0.046875,0 -0.09375,0 -0.11718752,-0.011719 -0.11718752,-0.011719 -0.14062502,-0.011719 -0.09375,0 -0.140625,0.046875 -0.140625,0.1171875 0,0.070312 0.046875,0.1054688 0.1171875,0.1054688 0.0234375,0 0.046875,0 0.0820313,-0.011719 0.0585937,-0.011719 0.11718752,-0.011719 0.16406252,-0.011719 0.1875,0 0.328125,0.1757812 0.328125,0.4335937 0,0.19921875 -0.046875,0.38671875 -0.140625,0.5390625 -0.1289063,0.22265625 -0.31640627,0.328125 -0.58593752,0.328125 -0.234375,0 -0.43359375,-0.10546875 -0.43359375,-0.24609375 0,-0.046875 0.0234375,-0.0585938 0.0820313,-0.0820313 0.12890625,-0.0585937 0.17578125,-0.12890625 0.17578125,-0.24609375 0,-0.140625 -0.1171875,-0.2578125 -0.26953125,-0.2578125 -0.17578125,0 -0.29296875,0.140625 -0.29296875,0.36328125 0,0.3984375 0.3046875,0.64453125 0.80859375,0.64453125 0.62109377,0 1.10156257,-0.41015625 1.10156257,-0.97265625 0,-0.14062495 -0.046875,-0.26953115 -0.140625,-0.37499995 C 1.6763281,-1.3934062 1.5942969,-1.452 1.4067969,-1.498875 Z m 0,0"
         style="fill:#000000;fill-opacity:1;fill-rule:nonzero;stroke:none" />
      <path
         id="path25"
         d="m 1.4595313,21.027492 c -0.93750005,0 -1.8867188,0.808594 -1.8867188,1.675781 0,0.597657 0.48046875,1.019532 1.171875,1.019532 0.9375,0 1.8867188,-0.808594 1.8867188,-1.675782 0,-0.597656 -0.4804688,-1.019531 -1.171875,-1.019531 z m 0,0"
         style="fill:#000000;fill-opacity:1;fill-rule:nonzero;stroke:none" />
    </g>
    <path
       id="path25-8"
       d="m 296.9826,126.60072 c -1.25,0 -2.51562,1.07812 -2.51562,2.23437 0,0.79688 0.64062,1.35938 1.5625,1.35938 1.25,0 2.51562,-1.07813 2.51562,-2.23438 0,-0.79687 -0.64062,-1.35937 -1.5625,-1.35937 z m 0,0"
       style="fill:#000000;fill-opacity:1;fill-rule:nonzero;stroke:none;stroke-width:1.33333" />
    <path
       id="path25-8-7"
       d="m 323.64115,122.84688 c -1.25,0 -2.51562,1.07812 -2.51562,2.23437 0,0.79688 0.64062,1.35938 1.5625,1.35938 1.25,0 2.51562,-1.07813 2.51562,-2.23438 0,-0.79687 -0.64062,-1.35937 -1.5625,-1.35937 z m 0,0"
       style="fill:#000000;fill-opacity:1;fill-rule:nonzero;stroke:none;stroke-width:1.33333" />
    <path
       id="path25-8-7-2"
       d="m 332.77036,126.66637 c -1.25,0 -2.51562,1.07812 -2.51562,2.23437 0,0.79688 0.64062,1.35938 1.5625,1.35938 1.25,0 2.51562,-1.07813 2.51562,-2.23438 0,-0.79687 -0.64062,-1.35937 -1.5625,-1.35937 z m 0,0"
       style="fill:#000000;fill-opacity:1;fill-rule:nonzero;stroke:none;stroke-width:1.33333" />
    <path
       id="path25-8-7-2-0"
       d="m 341.89122,130.68717 c -1.25,0 -2.51562,1.07812 -2.51562,2.23437 0,0.79688 0.64062,1.35938 1.5625,1.35938 1.25,0 2.51562,-1.07813 2.51562,-2.23438 0,-0.79687 -0.64062,-1.35937 -1.5625,-1.35937 z m 0,0"
       style="fill:#000000;fill-opacity:1;fill-rule:nonzero;stroke:none;stroke-width:1.33333" />
    <path
       id="path26"
       d="m 2347.06,7428.38 h 1.6016 v 180.414 h -1.6016 z"
       style="fill:#000000;fill-opacity:1;fill-rule:nonzero;stroke:#000000;stroke-width:3.98506;stroke-linecap:butt;stroke-linejoin:round;stroke-miterlimit:10;stroke-dasharray:none;stroke-opacity:1;paint-order:stroke fill markers"
       transform="matrix(0.13333333,0,0,-0.13333333,0,1122.52)" />
    <path
       id="path27"
       d="m 2435.43,7488.16 h 1.6055 v 127.063 h -1.6055 z"
       style="fill:none;stroke:#000000;stroke-width:3.98506;stroke-linecap:butt;stroke-linejoin:round;stroke-miterlimit:10;stroke-dasharray:none;stroke-opacity:1"
       transform="matrix(0.13333333,0,0,-0.13333333,0,1122.52)" />
    <path
       id="path28"
       d="m 2435.43,7488.15 h 1.6016 v 127.063 h -1.6016 z"
       style="fill:#000000;fill-opacity:1;fill-rule:nonzero;stroke:none"
       transform="matrix(0.13333333,0,0,-0.13333333,0,1122.52)" />
    <path
       id="path29"
       d="m 2235.48,7607.65 v -10.36 l 201.55,14.94 v 10.36 z"
       style="fill:#000000;fill-opacity:1;fill-rule:nonzero;stroke:#000000;stroke-width:3.98506;stroke-linecap:butt;stroke-linejoin:round;stroke-miterlimit:10;stroke-dasharray:none;stroke-opacity:1;paint-order:stroke fill markers"
       transform="matrix(0.13333333,0,0,-0.13333333,0,1122.52)" />
    <path
       id="path30"
       d="m 2235.48,7581.11 v -10.36 l 201.55,14.95 v 10.36 z"
       style="fill:#000000;fill-opacity:1;fill-rule:nonzero;stroke:#000000;stroke-width:3.98506;stroke-linecap:butt;stroke-linejoin:round;stroke-miterlimit:10;stroke-dasharray:none;stroke-opacity:1;paint-order:stroke fill markers"
       transform="matrix(0.13333333,0,0,-0.13333333,0,1122.52)" />
    <path
       id="path31"
       d="m 2235.48,7554.57 v -10.36 l 201.55,14.95 v 10.36 z"
       style="fill:#000000;fill-opacity:1;fill-rule:nonzero;stroke:#000000;stroke-width:3.98506;stroke-linecap:butt;stroke-linejoin:round;stroke-miterlimit:10;stroke-dasharray:none;stroke-opacity:1;paint-order:stroke fill markers"
       transform="matrix(0.13333333,0,0,-0.13333333,0,1122.52)" />
    <path
       id="path32"
       d="m 2235.48,7528.04 v -10.36 l 201.55,14.94 v 10.36 z"
       style="fill:#000000;fill-opacity:1;fill-rule:nonzero;stroke:#000000;stroke-width:3.98506;stroke-linecap:butt;stroke-linejoin:round;stroke-miterlimit:10;stroke-dasharray:none;stroke-opacity:1;paint-order:stroke fill markers"
       transform="matrix(0.13333333,0,0,-0.13333333,0,1122.52)" />
    <path
       id="path33"
       d="m 2503.87,7458.27 h 1.6016 v 142.555 h -1.6016 z"
       style="fill:none;stroke:#000000;stroke-width:3.98506;stroke-linecap:butt;stroke-linejoin:round;stroke-miterlimit:10;stroke-dasharray:none;stroke-opacity:1"
       transform="matrix(0.13333333,0,0,-0.13333333,0,1122.52)" />
    <path
       id="path34"
       d="m 2503.87,7458.27 h 1.6016 v 142.551 h -1.6016 z"
       style="fill:#000000;fill-opacity:1;fill-rule:nonzero;stroke:none"
       transform="matrix(0.13333333,0,0,-0.13333333,0,1122.52)" />
    <path
       id="path35"
       d="m 2572.32,7428.38 h 1.6055 v 180.859 h -1.6055 z"
       style="fill:none;stroke:#000000;stroke-width:3.98506;stroke-linecap:butt;stroke-linejoin:round;stroke-miterlimit:10;stroke-dasharray:none;stroke-opacity:1"
       transform="matrix(0.13333333,0,0,-0.13333333,0,1122.52)" />
    <path
       id="path36"
       d="m 2572.32,7428.38 h 1.6016 v 180.855 h -1.6016 z"
       style="fill:#000000;fill-opacity:1;fill-rule:nonzero;stroke:none"
       transform="matrix(0.13333333,0,0,-0.13333333,0,1122.52)" />
    <path
       id="path37"
       d="m 2660.69,7488.16 h 1.6016 v 131.949 h -1.6016 z"
       style="fill:none;stroke:#000000;stroke-width:3.98506;stroke-linecap:butt;stroke-linejoin:round;stroke-miterlimit:10;stroke-dasharray:none;stroke-opacity:1"
       transform="matrix(0.13333333,0,0,-0.13333333,0,1122.52)" />
    <path
       id="path38"
       d="m 2660.68,7488.15 h 1.6016 v 131.945 h -1.6016 z"
       style="fill:#000000;fill-opacity:1;fill-rule:nonzero;stroke:none"
       transform="matrix(0.13333333,0,0,-0.13333333,0,1122.52)" />
    <path
       id="path39"
       d="M 0.4453125,-0.98529688 H 4.8632812 V -1.6884219 H 0.4453125 Z m 0,-1.76953122 h 4.4179687 v -0.703125 H 0.4453125 Z m 0,0"
       style="fill:#000000;fill-opacity:1;fill-rule:nonzero;stroke:none"
       aria-label="="
       transform="matrix(1.3333333,0,0,1.3333333,279.5,130.77467)" />
    <text
       id="text39"
       xml:space="preserve"
       transform="matrix(1.3333333,0,0,1.3333333,364.10573,130.77467)"><tspan
         style="font-variant:normal;font-weight:normal;font-size:8.76415px;font-family:'Songti SC';writing-mode:lr-tb;fill:#000000;fill-opacity:1;fill-rule:nonzero;stroke:none"
         x="0"
         y="0"
         id="tspan39">⋯</tspan></text>
    <path
       id="path25-8-7-2-5"
       d="m 353.67736,122.87771 c -1.25,0 -2.51562,1.07812 -2.51562,2.23437 0,0.79688 0.64062,1.35938 1.5625,1.35938 1.25,0 2.51562,-1.07813 2.51562,-2.23438 0,-0.79687 -0.64062,-1.35937 -1.5625,-1.35937 z m 0,0"
       style="fill:#000000;fill-opacity:1;fill-rule:nonzero;stroke:none;stroke-width:1.33333"
       inkscape:transform-center-x="-4.3668767"
       inkscape:transform-center-y="-0.064218776" />
  </g>
</svg>
