<?xml version="1.0" encoding="UTF-8" standalone="no"?>
<svg width="73px" height="33px" viewBox="0 0 73 33"
 xmlns="http://www.w3.org/2000/svg" xmlns:xlink="http://www.w3.org/1999/xlink" version="1.2" baseProfile="tiny">
<title>swing marking</title>
<desc>Generated by MuseScore 2.1.0</desc>
<polyline class="" fill="none" stroke="#000000" stroke-width="0.65" stroke-linecap="round" stroke-linejoin="bevel" points="22.7272,27.4825 22.7272,13.4216"/>
<polyline class="" fill="none" stroke="#000000" stroke-width="0.65" stroke-linecap="round" stroke-linejoin="bevel" points="9.03503,27.4825 9.03503,13.4216"/>
<polyline class="" fill="none" stroke="#000000" stroke-width="0.65" stroke-linecap="round" stroke-linejoin="bevel" points="66.3277,27.4825 66.3277,10.9216"/>
<polyline class="" fill="none" stroke="#000000" stroke-width="0.65" stroke-linecap="round" stroke-linejoin="bevel" points="50.1116,27.4825 50.1116,11.5466"/>
<path class="" d="M20.8639,25.6677 C21.4889,25.6677 22.0163,25.8304 22.446,26.1559 C22.8496,26.5075 23.0514,26.9502 23.0514,27.4841 C23.0514,28.3825 22.5892,29.2224 21.6647,30.0036 C20.7272,30.7849 19.7246,31.1755 18.6569,31.1755 C18.0319,31.1755 17.5046,31.0127 17.0749,30.6872 C16.6712,30.3356 16.4694,29.8929 16.4694,29.3591 C16.4694,28.4606 16.9382,27.6208 17.8757,26.8395 C18.7871,26.0583 19.7832,25.6677 20.8639,25.6677"/>
<path class="" d="M7.17175,25.6677 C7.79675,25.6677 8.32409,25.8304 8.75378,26.1559 C9.15742,26.5075 9.35925,26.9502 9.35925,27.4841 C9.35925,28.3825 8.89701,29.2224 7.97253,30.0036 C7.03503,30.7849 6.03242,31.1755 4.96471,31.1755 C4.33971,31.1755 3.81237,31.0127 3.38268,30.6872 C2.97904,30.3356 2.77721,29.8929 2.77721,29.3591 C2.77721,28.4606 3.24596,27.6208 4.18346,26.8395 C5.09492,26.0583 6.09102,25.6677 7.17175,25.6677"/>
<path class="" d="M64.4644,25.6677 C65.0894,25.6677 65.6167,25.8304 66.0464,26.1559 C66.4501,26.5075 66.6519,26.9502 66.6519,27.4841 C66.6519,28.3825 66.1896,29.2224 65.2652,30.0036 C64.3277,30.7849 63.3251,31.1755 62.2573,31.1755 C61.6323,31.1755 61.105,31.0127 60.6753,30.6872 C60.2717,30.3356 60.0698,29.8929 60.0698,29.3591 C60.0698,28.4606 60.5386,27.6208 61.4761,26.8395 C62.3876,26.0583 63.3836,25.6677 64.4644,25.6677"/>
<path class="" d="M48.2483,25.6677 C48.8733,25.6677 49.4007,25.8304 49.8304,26.1559 C50.234,26.5075 50.4358,26.9502 50.4358,27.4841 C50.4358,28.3825 49.9736,29.2224 49.0491,30.0036 C48.1116,30.7849 47.109,31.1755 46.0413,31.1755 C45.4163,31.1755 44.889,31.0127 44.4593,30.6872 C44.0556,30.3356 43.8538,29.8929 43.8538,29.3591 C43.8538,28.4606 44.3226,27.6208 45.2601,26.8395 C46.1715,26.0583 47.1676,25.6677 48.2483,25.6677"/>
<path class="" fill-rule="evenodd" d="M8.71003,12.1716 L23.0522,12.1716 L23.0522,14.6716 L8.71003,14.6716 L8.71003,12.1716 "/>
<path class="" fill-rule="evenodd" d="M8.71003,15.9216 L23.0522,15.9216 L23.0522,18.4216 L8.71003,18.4216 L8.71003,15.9216 "/>
<path class="" d="M66.6277,10.9216 C66.6277,11.5856 66.7709,12.2497 67.0574,12.9137 C67.3308,13.5648 67.6693,14.1833 68.073,14.7692 L69.2449,16.488 C69.6355,17.0218 69.974,17.6403 70.2605,18.3434 C70.5469,18.9945 70.6902,19.652 70.6902,20.3161 C70.6902,20.9281 70.5339,21.5661 70.2214,22.2302 C70.612,23.0244 70.8074,23.7992 70.8074,24.5544 C70.8074,25.7523 70.5274,26.9762 69.9675,28.2262 C69.8764,28.3825 69.7527,28.4606 69.5964,28.4606 C69.4662,28.4606 69.349,28.4085 69.2449,28.3044 C69.1667,28.2262 69.1277,28.1286 69.1277,28.0114 C69.1277,28.0114 69.1277,27.9789 69.1277,27.9137 C69.6876,26.807 69.9675,25.6872 69.9675,24.5544 C69.9675,24.0466 69.8699,23.5778 69.6745,23.1481 C69.4402,22.6403 69.1537,22.1716 68.8152,21.7419 C68.3855,21.182 68.0469,20.7783 67.7995,20.5309 C67.461,20.1924 67.0704,19.8213 66.6277,19.4177 L66.6277,20.9216 L66.0027,20.9216 L66.0027,10.9216 L66.6277,10.9216 M69.6941,21.2536 C69.7852,20.9802 69.8308,20.6677 69.8308,20.3161 C69.8308,19.8604 69.7396,19.3981 69.5574,18.9294 C69.362,18.4606 69.0886,17.9854 68.737,17.5036 C68.4115,17.0999 68.0795,16.7028 67.7409,16.3122 C67.4805,16.0257 67.1094,15.6481 66.6277,15.1794 C66.6277,15.7132 66.7383,16.2796 66.9597,16.8786 C67.1941,17.4385 67.435,17.9268 67.6824,18.3434 C67.9688,18.7861 68.3204,19.2874 68.737,19.8473 C69.1537,20.4072 69.4727,20.876 69.6941,21.2536"/>
<path class="" d="M49.7866,16.5466 L49.7866,11.5466 L50.4116,11.5466 C50.4116,12.2887 50.5548,13.0309 50.8413,13.7731 C51.1538,14.5804 51.4989,15.2835 51.8765,15.8825 C52.1499,16.3122 52.5601,16.9697 53.1069,17.8552 C53.5236,18.5322 53.8752,19.2419 54.1616,19.9841 C54.4481,20.7262 54.5913,21.4684 54.5913,22.2106 C54.5913,23.5648 54.3114,24.945 53.7515,26.3512 C53.6603,26.5075 53.5366,26.5856 53.3804,26.5856 C53.2502,26.5856 53.133,26.5335 53.0288,26.4294 C52.9507,26.3512 52.9116,26.2536 52.9116,26.1364 L52.9116,26.0387 C53.4715,24.7497 53.7515,23.4736 53.7515,22.2106 C53.7515,21.5596 53.5561,20.8565 53.1655,20.1012 C52.7749,19.333 52.3778,18.721 51.9741,18.2653 C51.5184,17.7315 50.9976,17.1585 50.4116,16.5466 L49.7866,16.5466 "/>
<path class="" d="M55.4032,4.31241 C56.9966,4.05241 57.7932,3.49908 57.7932,2.65241 C57.7932,2.37908 57.7116,2.15908 57.5482,1.99241 C57.3849,1.82575 57.1699,1.74241 56.9032,1.74241 C56.4966,1.74241 56.1232,1.96575 55.7832,2.41241 L55.6232,2.36241 C55.7899,2.03627 56.0182,1.77806 56.3082,1.5878 C56.5982,1.39754 56.9166,1.30241 57.2632,1.30241 C57.6632,1.30241 57.9966,1.42431 58.2632,1.66812 C58.5299,1.91192 58.6632,2.22002 58.6632,2.59241 C58.6632,2.93241 58.5549,3.20575 58.3382,3.41241 C58.1216,3.61908 57.7099,3.83908 57.1032,4.07241 L57.1032,4.10241 C57.7432,4.39575 58.0632,4.89241 58.0632,5.59241 C58.0632,6.28575 57.8066,6.88575 57.2932,7.39241 C56.7799,7.89908 56.1066,8.15241 55.2732,8.15241 C54.5266,8.15241 54.1532,7.95575 54.1532,7.56241 C54.1532,7.30241 54.2999,7.17241 54.5932,7.17241 C54.7599,7.17241 54.9832,7.27241 55.2632,7.47241 C55.5432,7.67241 55.7732,7.77241 55.9532,7.77241 C56.3132,7.77241 56.6216,7.62075 56.8782,7.31741 C57.1349,7.01408 57.2632,6.61908 57.2632,6.13241 C57.2632,5.50575 57.1066,5.07241 56.7932,4.83241 C56.4799,4.59241 56.0166,4.47241 55.4032,4.47241 L55.4032,4.31241 "/>
<polyline class="" fill="none" stroke="#000000" stroke-width="0.50" stroke-linecap="square" stroke-linejoin="bevel" points="43.8538,9.97156 43.8538,4.97156 51.5032,5.0386"/>
<polyline class="" fill="none" stroke="#000000" stroke-width="0.50" stroke-linecap="square" stroke-linejoin="bevel" points="61.5032,5.12623 69.1527,5.19327 69.1527,10.1933"/>
<path class="" d="M38.7136,25.9636 L28.7776,25.9636 L28.7776,24.2356 L38.7136,24.2356 L38.7136,25.9636 M38.7136,30.3556 L28.7776,30.3556 L28.7776,28.6276 L38.7136,28.6276 L38.7136,30.3556 "/>
</svg>
