<?xml version="1.0" encoding="UTF-8" standalone="no"?>
<svg width="84px" height="32px" viewBox="0 0 84 32"
 xmlns="http://www.w3.org/2000/svg" xmlns:xlink="http://www.w3.org/1999/xlink" version="1.2" baseProfile="tiny">
<title>swing marking</title>
<desc>Generated by MuseScore 2.1.0</desc>
<polyline class="" fill="none" stroke="#000000" stroke-width="0.65" stroke-linecap="round" stroke-linejoin="bevel" points="25.1877,26.9824 25.1877,12.9215"/>
<polyline class="" fill="none" stroke="#000000" stroke-width="0.65" stroke-linecap="round" stroke-linejoin="bevel" points="8.78087,26.9824 8.78087,12.9215"/>
<polyline class="" fill="none" stroke="#000000" stroke-width="0.65" stroke-linecap="round" stroke-linejoin="bevel" points="77.4323,26.9824 77.4323,11.0465"/>
<polyline class="" fill="none" stroke="#000000" stroke-width="0.65" stroke-linecap="round" stroke-linejoin="bevel" points="58.0012,26.9824 58.0012,11.0465"/>
<path class="" d="M23.3244,25.1676 C23.9494,25.1676 24.4767,25.3304 24.9064,25.6559 C25.3101,26.0074 25.5119,26.4502 25.5119,26.984 C25.5119,27.8824 25.0496,28.7223 24.1252,29.5035 C23.1877,30.2848 22.1851,30.6754 21.1173,30.6754 C20.4923,30.6754 19.965,30.5127 19.5353,30.1871 C19.1317,29.8356 18.9298,29.3929 18.9298,28.859 C18.9298,27.9606 19.3986,27.1207 20.3361,26.3395 C21.2476,25.5582 22.2436,25.1676 23.3244,25.1676"/>
<path class="" d="M6.91758,25.1676 C7.54258,25.1676 8.06993,25.3304 8.49961,25.6559 C8.90326,26.0074 9.10508,26.4502 9.10508,26.984 C9.10508,27.8824 8.64284,28.7223 7.71836,29.5035 C6.78086,30.2848 5.77826,30.6754 4.71055,30.6754 C4.08555,30.6754 3.55821,30.5127 3.12852,30.1871 C2.72488,29.8356 2.52305,29.3929 2.52305,28.859 C2.52305,27.9606 2.9918,27.1207 3.9293,26.3395 C4.84076,25.5582 5.83685,25.1676 6.91758,25.1676"/>
<path class="" d="M75.569,25.1676 C76.194,25.1676 76.7213,25.3304 77.151,25.6559 C77.5547,26.0074 77.7565,26.4502 77.7565,26.984 C77.7565,27.8824 77.2942,28.7223 76.3698,29.5035 C75.4323,30.2848 74.4297,30.6754 73.3619,30.6754 C72.7369,30.6754 72.2096,30.5127 71.7799,30.1871 C71.3763,29.8356 71.1744,29.3929 71.1744,28.859 C71.1744,27.9606 71.6432,27.1207 72.5807,26.3395 C73.4922,25.5582 74.4882,25.1676 75.569,25.1676"/>
<path class="" d="M56.138,25.1676 C56.763,25.1676 57.2903,25.3304 57.72,25.6559 C58.1236,26.0074 58.3255,26.4502 58.3255,26.984 C58.3255,27.8824 57.8632,28.7223 56.9387,29.5035 C56.0012,30.2848 54.9986,30.6754 53.9309,30.6754 C53.3059,30.6754 52.7786,30.5127 52.3489,30.1871 C51.9453,29.8356 51.7434,29.3929 51.7434,28.859 C51.7434,27.9606 52.2122,27.1207 53.1497,26.3395 C54.0611,25.5582 55.0572,25.1676 56.138,25.1676"/>
<path class="" fill-rule="evenodd" d="M8.45587,11.6715 L25.5127,11.6715 L25.5127,14.1715 L8.45587,14.1715 L8.45587,11.6715 "/>
<path class="" d="M77.1073,16.0465 L77.1073,11.0465 L77.7323,11.0465 C77.7323,11.7887 77.8755,12.5309 78.162,13.2731 C78.4745,14.0804 78.8195,14.7835 79.1971,15.3824 C79.4705,15.8121 79.8807,16.4697 80.4276,17.3551 C80.8442,18.0322 81.1958,18.7418 81.4823,19.484 C81.7687,20.2262 81.912,20.9684 81.912,21.7106 C81.912,23.0647 81.632,24.4449 81.0721,25.8512 C80.981,26.0074 80.8573,26.0856 80.701,26.0856 C80.5708,26.0856 80.4536,26.0335 80.3495,25.9293 C80.2713,25.8512 80.2323,25.7535 80.2323,25.6363 L80.2323,25.5387 C80.7922,24.2496 81.0721,22.9736 81.0721,21.7106 C81.0721,21.0595 80.8768,20.3564 80.4862,19.6012 C80.0955,18.833 79.6984,18.221 79.2948,17.7652 C78.839,17.2314 78.3182,16.6585 77.7323,16.0465 L77.1073,16.0465 "/>
<path class="" d="M64.9003,3.7015 C66.4937,3.4415 67.2903,2.88816 67.2903,2.0415 C67.2903,1.76816 67.2087,1.54816 67.0453,1.3815 C66.882,1.21483 66.667,1.1315 66.4003,1.1315 C65.9937,1.1315 65.6203,1.35483 65.2803,1.8015 L65.1203,1.7515 C65.287,1.42535 65.5153,1.16715 65.8053,0.976886 C66.0953,0.786626 66.4137,0.691496 66.7603,0.691496 C67.1603,0.691496 67.4937,0.813397 67.7603,1.0572 C68.027,1.301 68.1603,1.6091 68.1603,1.9815 C68.1603,2.3215 68.052,2.59483 67.8353,2.8015 C67.6187,3.00816 67.207,3.22816 66.6003,3.4615 L66.6003,3.4915 C67.2403,3.78483 67.5603,4.2815 67.5603,4.9815 C67.5603,5.67483 67.3037,6.27483 66.7903,6.7815 C66.277,7.28816 65.6037,7.5415 64.7703,7.5415 C64.0237,7.5415 63.6503,7.34483 63.6503,6.9515 C63.6503,6.6915 63.797,6.5615 64.0903,6.5615 C64.257,6.5615 64.4803,6.6615 64.7603,6.8615 C65.0403,7.0615 65.2703,7.1615 65.4503,7.1615 C65.8103,7.1615 66.1187,7.00983 66.3753,6.7065 C66.632,6.40316 66.7603,6.00816 66.7603,5.5215 C66.7603,4.89483 66.6037,4.4615 66.2903,4.2215 C65.977,3.9815 65.5137,3.8615 64.9003,3.8615 L64.9003,3.7015 "/>
<polyline class="" fill="none" stroke="#000000" stroke-width="0.50" stroke-linecap="square" stroke-linejoin="bevel" points="51.7434,9.4715 51.7434,4.4715 61.0003,4.4715"/>
<polyline class="" fill="none" stroke="#000000" stroke-width="0.50" stroke-linecap="square" stroke-linejoin="bevel" points="71.0003,4.4715 80.2573,4.4715 80.2573,9.4715"/>
<path class="" d="M43.8886,25.4635 L33.9526,25.4635 L33.9526,23.7355 L43.8886,23.7355 L43.8886,25.4635 M43.8886,29.8555 L33.9526,29.8555 L33.9526,28.1275 L43.8886,28.1275 L43.8886,29.8555 "/>
</svg>
